<svg xmlns="http://www.w3.org/2000/svg" xmlns:xlink="http://www.w3.org/1999/xlink" version="1.1" x="0px" y="0px" viewBox="0 0 450 562.5" style="enable-background:new 0 0 450 450;" xml:space="preserve"><g><g><path d="M339.3,250.8c-18.5,0-36.8-4.9-53.2-14.4c-24.7-14.3-42.4-37.3-49.8-64.8c-7.4-27.6-3.6-56.3,10.7-81s37.3-42.4,64.8-49.7    c27.5-7.4,56.3-3.6,81,10.7l0,0c24.7,14.3,42.4,37.3,49.8,64.8s3.6,56.3-10.7,81s-37.3,42.4-64.8,49.8    C357.9,249.5,348.6,250.8,339.3,250.8z M339.6,47.1c-8.4,0-16.9,1.1-25.2,3.3c-25,6.7-45.8,22.7-58.8,45.1    c-12.9,22.4-16.4,48.5-9.7,73.4c6.7,25,22.7,45.8,45.1,58.8c22.4,12.9,48.5,16.4,73.4,9.7s45.8-22.7,58.8-45.1    c12.9-22.4,16.4-48.5,9.7-73.4c-6.7-25-22.7-45.8-45.1-58.8l0,0C373,51.5,356.4,47.1,339.6,47.1z"/></g><g><g><path d="M403.3,120.8c-8.3,0-15-6.8-15-15s6.8-15,15-15s15,6.8,15,15S411.5,120.8,403.3,120.8z M403.3,100.7c-2.8,0-5,2.3-5,5     s2.3,5,5,5s5-2.3,5-5S406,100.7,403.3,100.7z"/></g><g><g><path d="M362.1,204.3c-0.7,0-1.4-0.1-2.1-0.4c-2.5-1.1-3.6-4.1-2.5-6.6l6-13.3l-21.7-42.8H337L315.3,184l6,13.3      c1.1,2.5,0,5.5-2.5,6.6c-2.5,1.1-5.5,0-6.6-2.5l-7-15.4c-0.6-1.4-0.6-3,0.1-4.3l24.2-47.7c0.9-1.7,2.6-2.7,4.5-2.7h11      c1.9,0,3.6,1.1,4.5,2.7l24.2,47.7c0.7,1.4,0.7,2.9,0.1,4.3l-7,15.4C365.8,203.2,364,204.3,362.1,204.3z"/></g><g><path d="M339.5,172.7c-2.8,0-5-2.2-5-5v-31.6c0-2.8,2.2-5,5-5s5,2.2,5,5v31.6C344.5,170.5,342.2,172.7,339.5,172.7z"/></g><g><path d="M362.1,221.4h-45.3c-2.8,0-5-2.2-5-5v-17.2c0-2.8,2.2-5,5-5h45.3c2.8,0,5,2.2,5,5v17.2      C367.1,219.2,364.9,221.4,362.1,221.4z M321.8,211.4h35.3v-7.2h-35.3V211.4z"/></g></g><g><path d="M287.4,153.8c-0.3,0-0.6,0-0.9-0.1c-2.7-0.5-4.5-3.1-4-5.9c4.4-23.1,22.9-41.7,46.1-46.1c2.7-0.5,5.3,1.3,5.9,4     c0.5,2.7-1.3,5.3-4,5.9c-19.1,3.6-34.5,19-38.1,38.1C291.8,152.1,289.8,153.8,287.4,153.8z M391.6,153.8c-2.4,0-4.5-1.7-4.9-4.1     c-3.6-19.1-19-34.5-38.1-38.1c-2.7-0.5-4.5-3.1-4-5.8s3.1-4.5,5.9-4c23.1,4.4,41.7,22.9,46.1,46.1c0.5,2.7-1.3,5.3-4,5.9     C392.2,153.8,391.9,153.8,391.6,153.8z"/></g><g><path d="M286.5,173.8c-8.3,0-15-6.8-15-15s6.8-15,15-15s15,6.8,15,15S294.7,173.8,286.5,173.8z M286.5,153.7c-2.8,0-5,2.3-5,5     s2.3,5,5,5s5-2.3,5-5S289.2,153.7,286.5,153.7z"/></g><g><path d="M339.5,120.8c-8.3,0-15-6.8-15-15s6.8-15,15-15s15,6.8,15,15S347.8,120.8,339.5,120.8z M339.5,100.7c-2.8,0-5,2.3-5,5     s2.3,5,5,5s5-2.3,5-5S342.3,100.7,339.5,100.7z"/></g><g><path d="M392.5,173.8c-8.3,0-15-6.8-15-15s6.8-15,15-15s15,6.8,15,15S400.8,173.8,392.5,173.8z M392.5,153.7c-2.8,0-5,2.3-5,5     s2.3,5,5,5s5-2.3,5-5S395.3,153.7,392.5,153.7z"/></g><g><path d="M393.2,110.7h-43.7c-2.8,0-5-2.2-5-5s2.2-5,5-5h43.7c2.8,0,5,2.2,5,5C398.2,108.5,396,110.7,393.2,110.7z M329.4,110.7     h-43.7c-2.8,0-5-2.2-5-5s2.2-5,5-5h43.7c2.8,0,5,2.2,5,5C334.4,108.5,332.2,110.7,329.4,110.7z"/></g><g><path d="M275.7,120.8c-8.3,0-15-6.8-15-15s6.8-15,15-15s15,6.8,15,15S284,120.8,275.7,120.8z M275.7,100.7c-2.8,0-5,2.3-5,5     s2.3,5,5,5s5-2.3,5-5S278.5,100.7,275.7,100.7z"/></g></g><g><path d="M298.7,345c0,0-0.1,0-0.1,0c-2.8-0.1-4.9-2.4-4.9-5.1v-0.1v-23.5c0-2.7-2.2-4.9-4.9-4.9h-32.1c-2.2,0-4.1-1.4-4.8-3.5    c-1.2-3.9-2.8-7.8-4.7-11.4c-1-1.9-0.7-4.3,0.9-5.9l22.7-22.7c1.9-1.9,1.9-5,0-6.9l-16.6-16.6c-1.9-1.9-5-1.9-6.9,0L224.6,267    c-1.6,1.5-3.9,1.9-5.9,0.9c-3.7-1.9-7.5-3.5-11.4-4.7c-2.1-0.6-3.5-2.6-3.5-4.8v-32.1c0-2.7-2.2-4.9-4.9-4.9h-23.5    c-2.7,0-4.9,2.2-4.9,4.9v32.1c0,2.2-1.4,4.1-3.5,4.8c-3.9,1.2-7.8,2.8-11.4,4.7c-1.9,1-4.3,0.7-5.9-0.9L127,244.3    c-1.9-1.9-5-1.9-6.9,0l-16.6,16.6c-1.9,1.9-1.9,5,0,6.9l22.7,22.7c1.6,1.5,1.9,3.9,0.9,5.9c-1.9,3.6-3.5,7.5-4.7,11.4    c-0.6,2.1-2.6,3.5-4.8,3.5H85.5c-2.7,0-4.9,2.2-4.9,4.9v23.7c0.1,2.8-2.1,5.1-4.8,5.1c-2.8,0.1-5.1-2.1-5.2-4.9c0-0.1,0-0.3,0-0.4    v-23.5c0-8.2,6.7-14.9,14.9-14.9H114c0.8-2.1,1.6-4.2,2.6-6.3l-20.2-20.2c-5.8-5.8-5.8-15.2,0-21l16.6-16.6c5.8-5.8,15.2-5.8,21,0    l20.2,20.2c2.1-1,4.1-1.8,6.3-2.6v-28.5c0-8.2,6.7-14.9,14.9-14.9h23.5c8.2,0,14.9,6.7,14.9,14.9v28.5c2.1,0.8,4.2,1.6,6.3,2.6    l20.2-20.2c5.8-5.8,15.2-5.8,21,0l16.6,16.6c5.8,5.8,5.8,15.2,0,21l-20.2,20.2c1,2,1.8,4.1,2.6,6.3h28.5c8.2,0,14.9,6.7,14.9,14.9    v23.5c0,0.1,0,0.3,0,0.4C303.6,342.9,301.4,345,298.7,345z"/></g><g><path d="M150.4,345c-2.1,0-4.1-1.3-4.8-3.4c-1.4-4.4-2.2-9-2.2-13.6c0-24.1,19.6-43.7,43.7-43.7s43.7,19.6,43.7,43.7    c0,4.6-0.7,9.2-2.2,13.6c-0.9,2.6-3.7,4.1-6.3,3.2c-2.6-0.9-4.1-3.7-3.2-6.3c1.1-3.4,1.7-6.9,1.7-10.5c0-18.6-15.1-33.7-33.7-33.7    s-33.7,15.1-33.7,33.7c0,3.6,0.6,7.1,1.7,10.5c0.9,2.6-0.6,5.5-3.2,6.3C151.4,345,150.9,345,150.4,345z"/></g><g><path d="M353.6,391.6h-333c-9,0-16.4-7.4-16.4-16.4v-11.4c0-2.8,2.2-5,5-5H365c2.8,0,5,2.2,5,5v11.4    C370,384.2,362.7,391.6,353.6,391.6z M14.3,368.8v6.4c0,3.5,2.9,6.4,6.4,6.4h333c3.5,0,6.4-2.9,6.4-6.4v-6.4H14.3z"/></g><g><path d="M330.9,414.3H43.4c-9,0-16.4-7.4-16.4-16.4v-11.4c0-2.8,2.2-5,5-5s5,2.2,5,5V398c0,3.5,2.9,6.4,6.4,6.4h287.5    c3.5,0,6.4-2.9,6.4-6.4v-11.4c0-2.8,2.2-5,5-5s5,2.2,5,5V398C347.3,407,339.9,414.3,330.9,414.3z"/></g><g><path d="M334.1,368.8c-2.8,0-5-2.2-5-5s2.2-5,5-5c7.5,0,13.6-6.1,13.6-13.6V244.8c0-2.8,2.2-5,5-5s5,2.2,5,5v100.3    C357.7,358.2,347.1,368.8,334.1,368.8z M40.2,368.8c-13,0-23.7-10.6-23.7-23.6v-195c0-13,10.6-23.6,23.7-23.6h198.2    c2.8,0,5,2.2,5,5s-2.2,5-5,5H40.2c-7.5,0-13.7,6.1-13.7,13.6v195c0,7.5,6.1,13.6,13.7,13.6c2.8,0,5,2.2,5,5S43,368.8,40.2,368.8z"/></g><g><path d="M328.9,345H45.4c-2.8,0-5-2.2-5-5V155.3c0-2.8,2.2-5,5-5h193c2.8,0,5,2.2,5,5s-2.2,5-5,5h-188V335h273.5v-89.9    c0-2.8,2.2-5,5-5s5,2.2,5,5V340C333.9,342.8,331.7,345,328.9,345z"/></g></g></svg>